# xmcd
#
# Track frame offsets:
#	150
#	17680
#	34754
#	49984
#	64717
#	80590
#	101218
#	119289
#	140342
#	157241
#	166921
#
# Disc length: 2431 seconds
#
# Revision: 0
# Processed by: cddbd v1.5.2PL0 Copyright (c) Steve Scherf et al.
# Submitted via: EasyCDDAExtractor 10.0.3.1
#
DISCID=94097d0b
DTITLE=William Hut - Nightfall
DYEAR=2006
DGENRE=Alt.Country
TTITLE0=You Might Thrill Me
TTITLE1=Take It Easy
TTITLE2=Nightfall
TTITLE3=Echo
TTITLE4=It Slips Away
TTITLE5=Eclipse
TTITLE6=Mannerism
TTITLE7=Falling Star
TTITLE8=My Everything
TTITLE9=Elected
TTITLE10=Passing Through
EXTD=
EXTT0=
EXTT1=
EXTT2=
EXTT3=
EXTT4=
EXTT5=
EXTT6=
EXTT7=
EXTT8=
EXTT9=
EXTT10=
PLAYORDER=
